<?xml version="1.0" standalone="no"?>
<!DOCTYPE svg PUBLIC "-//W3C//DTD SVG 20010904//EN"
 "http://www.w3.org/TR/2001/REC-SVG-20010904/DTD/svg10.dtd">
<svg version="1.0" xmlns="http://www.w3.org/2000/svg"
 width="48.000000pt" height="48.000000pt" viewBox="0 0 48.000000 48.000000"
 preserveAspectRatio="xMidYMid meet">

<g transform="translate(0.000000,48.000000) scale(0.100000,-0.100000)"
fill="#000000" stroke="none">
<path d="M170 429 c-108 -59 -154 -99 -115 -99 37 0 46 -211 10 -247 -9 -8
-15 -23 -13 -32 3 -14 26 -16 184 -19 174 -2 182 -2 187 17 3 11 -1 25 -9 32
-20 17 -20 208 1 235 21 27 18 37 -13 55 -15 9 -54 33 -86 53 -33 20 -67 36
-75 36 -9 0 -41 -14 -71 -31z m164 -28 c43 -27 80 -52 84 -55 3 -3 -77 -6
-177 -6 -121 0 -180 3 -176 10 10 16 158 100 175 100 9 0 51 -22 94 -49z
m-206 -78 c-10 -2 -26 -2 -35 0 -10 3 -2 5 17 5 19 0 27 -2 18 -5z m208 -10
c9 -12 13 -49 14 -107 0 -118 -7 -126 -110 -126 -50 0 -81 4 -88 13 -14 16
-20 211 -7 225 6 6 46 11 94 12 68 0 86 -3 97 -17z m55 -1 c-7 -2 -18 1 -23 6
-8 8 -4 9 13 5 13 -4 18 -8 10 -11z m-267 -39 c3 -21 6 -68 6 -105 0 -58 -3
-68 -17 -68 -16 0 -18 10 -15 105 3 107 14 136 26 68z m264 -70 c-4 -127 -22
-125 -26 2 -2 81 0 95 13 95 13 0 15 -14 13 -97z m-255 -120 c-7 -2 -21 -2
-30 0 -10 3 -4 5 12 5 17 0 24 -2 18 -5z m250 0 c-7 -2 -21 -2 -30 0 -10 3 -4
5 12 5 17 0 24 -2 18 -5z m27 -27 c0 -12 -28 -15 -167 -14 -93 0 -172 3 -177
5 -25 15 36 23 182 23 135 0 162 -2 162 -14z"/>
<path d="M184 401 c-23 -10 -44 -23 -47 -27 -3 -5 44 -10 104 -11 60 0 109 1
109 3 0 6 -99 54 -112 54 -7 0 -32 -9 -54 -19z m96 -11 c11 -7 -3 -10 -45 -10
-42 0 -56 3 -45 10 8 5 29 10 45 10 17 0 37 -5 45 -10z"/>
<path d="M213 307 c-7 -7 -19 -18 -28 -25 -24 -20 -19 -69 10 -88 28 -18 34
-37 9 -27 -15 6 -34 -11 -34 -32 0 -12 56 -45 76 -45 8 0 14 4 14 8 0 5 11 14
25 20 33 15 43 57 20 82 -10 11 -24 20 -32 20 -7 0 -13 6 -13 14 0 9 7 12 20
9 28 -7 39 26 14 43 -10 7 -24 18 -31 24 -16 13 -35 12 -50 -3z m40 -7 c7 -6
21 -18 32 -26 19 -15 19 -15 -7 -11 -16 2 -28 1 -28 -4 0 -4 -3 -14 -6 -23 -4
-11 2 -19 19 -25 39 -15 52 -46 28 -68 -44 -40 -53 -46 -60 -36 -3 6 -16 13
-28 17 -14 4 -20 12 -16 21 4 11 10 12 24 4 17 -8 19 -6 19 18 0 20 -7 31 -22
38 -35 15 -36 62 -4 77 14 6 26 15 26 20 0 11 8 10 23 -2z"/>
<path d="M206 254 c-7 -18 0 -34 15 -34 5 0 9 11 9 25 0 28 -15 34 -24 9z"/>
<path d="M240 171 c0 -11 4 -22 8 -25 14 -9 35 12 29 28 -9 23 -37 20 -37 -3z"/>
</g>
</svg>
